<svg xmlns="http://www.w3.org/2000/svg" width="128" height="128" viewBox="0 0 128 128">
  <defs>
    <linearGradient id="g" x1="18" y1="16" x2="110" y2="112" gradientUnits="userSpaceOnUse">
      <stop stop-color="#4facfe"/>
      <stop offset="1" stop-color="#00f2fe"/>
    </linearGradient>
  </defs>
  <rect x="14" y="14" width="100" height="100" rx="22" fill="#0b0f19"/>
  <rect x="22" y="22" width="84" height="84" rx="18" fill="url(#g)" opacity="0.95"/>
  <path d="M40 38h48a6 6 0 0 1 6 6v40a6 6 0 0 1-6 6H40a6 6 0 0 1-6-6V44a6 6 0 0 1 6-6Z" fill="#0f172a" opacity="0.92"/>
  <path d="M42 51h44M42 63h44M42 75h24" stroke="#f8fafc" stroke-width="6" stroke-linecap="round"/>
  <circle cx="85" cy="80" r="16" fill="#10b981"/>
  <path d="m78 80 5 5 10-12" fill="none" stroke="#f8fafc" stroke-width="5" stroke-linecap="round" stroke-linejoin="round"/>
</svg>
